<?xml version="1.0" encoding="UTF-8" standalone="no"?>
<svg
   width="100%"
   height="100%"
   viewBox="0 0 1344 1344"
   version="1.1"
   xml:space="preserve"
   style="fill-rule:evenodd;clip-rule:evenodd;stroke-linejoin:round;stroke-miterlimit:2;"
   id="svg5"
   sodipodi:docname="icon.svg"
   inkscape:version="1.3.2 (091e20ef0f, 2023-11-25)"
   xmlns:inkscape="http://www.inkscape.org/namespaces/inkscape"
   xmlns:sodipodi="http://sodipodi.sourceforge.net/DTD/sodipodi-0.dtd"
   xmlns="http://www.w3.org/2000/svg"
   xmlns:svg="http://www.w3.org/2000/svg"><sodipodi:namedview
   id="namedview5"
   pagecolor="#505050"
   bordercolor="#eeeeee"
   borderopacity="1"
   inkscape:showpageshadow="0"
   inkscape:pageopacity="0"
   inkscape:pagecheckerboard="0"
   inkscape:deskcolor="#d1d1d1"
   inkscape:zoom="0.58928571"
   inkscape:cx="672"
   inkscape:cy="670.30304"
   inkscape:window-width="1920"
   inkscape:window-height="989"
   inkscape:window-x="0"
   inkscape:window-y="27"
   inkscape:window-maximized="1"
   inkscape:current-layer="svg5" />
    <path
   d="M673.24,0.001C1043.55,0.662 1344,301.521 1344,672C1344,1042.89 1042.89,1344 672,1344C301.113,1344 0,1042.89 0,672C0,301.15 301.053,0.06 671.846,0L672.154,0L673.24,0.001Z"
   style="fill:url(#_Linear1);"
   id="path1" />
    <g
   fill="#ffffff"
   id="g4"
   transform="matrix(1.0624435,0,0,1.0624435,247.02261,247.02261)">
        <rect
   ry="50"
   height="400"
   width="700"
   y="350"
   x="50"
   id="rect1" />
        <rect
   ry="25"
   height="50"
   width="600"
   y="250"
   x="100"
   id="rect2" />
        <rect
   ry="25"
   height="50"
   width="500"
   y="150"
   x="150"
   id="rect3" />
        <rect
   ry="25"
   height="50"
   width="400"
   y="50"
   x="200"
   id="rect4" />
    </g>
    <defs
   id="defs5">
        <linearGradient
   id="_Linear1"
   x1="0"
   y1="0"
   x2="1"
   y2="0"
   gradientUnits="userSpaceOnUse"
   gradientTransform="matrix(1180.66,-1344,1344,1180.66,163.341,1344)"><stop
     offset="0"
     style="stop-color:rgb(0,130,201);stop-opacity:1"
     id="stop4" /><stop
     offset="1"
     style="stop-color:rgb(28,175,255);stop-opacity:1"
     id="stop5" /></linearGradient>
    </defs>
</svg>
